<svg xmlns="http://www.w3.org/2000/svg" viewBox="0 0 720 651" font-family="sans-serif"><text x="320" y="14" font-size="11" fill="#5b6b7b">pass rate (green = 100%) by skill / version / model</text><text x="312" y="38" text-anchor="end" font-size="11" fill="#1c2733">agent-coach 0.1.0 · claude-fable-5 (1)</text><rect x="320" y="24" width="340" height="16" rx="2" fill="#e3e8ee"/><rect x="320" y="24" width="340" height="16" rx="2" fill="#008300"/><text x="666" y="37" font-size="11" fill="#5b6b7b">100%</text><text x="312" y="61" text-anchor="end" font-size="11" fill="#1c2733">agent-coach 0.2.0 · claude-fable-5 (1)</text><rect x="320" y="47" width="340" height="16" rx="2" fill="#e3e8ee"/><rect x="320" y="47" width="340" height="16" rx="2" fill="#008300"/><text x="666" y="60" font-size="11" fill="#5b6b7b">100%</text><text x="312" y="84" text-anchor="end" font-size="11" fill="#1c2733">agent-coach 0.3.0 · claude-fable-5 (3)</text><rect x="320" y="70" width="340" height="16" rx="2" fill="#e3e8ee"/><rect x="320" y="70" width="330" height="16" rx="2" fill="#e34948"/><text x="666" y="83" font-size="11" fill="#5b6b7b">97%</text><text x="312" y="107" text-anchor="end" font-size="11" fill="#1c2733">agent-coach 0.3.0 · claude-opus-5 (1)</text><rect x="320" y="93" width="340" height="16" rx="2" fill="#e3e8ee"/><rect x="320" y="93" width="340" height="16" rx="2" fill="#008300"/><text x="666" y="106" font-size="11" fill="#5b6b7b">100%</text><text x="312" y="130" text-anchor="end" font-size="11" fill="#1c2733">agent-coach 0.3.0 · merge-check (1)</text><rect x="320" y="116" width="340" height="16" rx="2" fill="#e3e8ee"/><rect x="320" y="116" width="340" height="16" rx="2" fill="#008300"/><text x="666" y="129" font-size="11" fill="#5b6b7b">100%</text><text x="312" y="153" text-anchor="end" font-size="11" fill="#1c2733">agent-coach 1.1.0 · claude-opus-5 (10)</text><rect x="320" y="139" width="340" height="16" rx="2" fill="#e3e8ee"/><rect x="320" y="139" width="340" height="16" rx="2" fill="#008300"/><text x="666" y="152" font-size="11" fill="#5b6b7b">100%</text><text x="312" y="176" text-anchor="end" font-size="11" fill="#1c2733">azure-credential-guard 0.1.0 · claude-opus-5 (1)</text><rect x="320" y="162" width="340" height="16" rx="2" fill="#e3e8ee"/><rect x="320" y="162" width="340" height="16" rx="2" fill="#008300"/><text x="666" y="175" font-size="11" fill="#5b6b7b">100%</text><text x="312" y="199" text-anchor="end" font-size="11" fill="#1c2733">codex-security-scan 0.1.0 · claude-opus-5 (2)</text><rect x="320" y="185" width="340" height="16" rx="2" fill="#e3e8ee"/><rect x="320" y="185" width="340" height="16" rx="2" fill="#008300"/><text x="666" y="198" font-size="11" fill="#5b6b7b">100%</text><text x="312" y="222" text-anchor="end" font-size="11" fill="#1c2733">llm-usage-ledger 1.0.0 · claude-opus-5 (5)</text><rect x="320" y="208" width="340" height="16" rx="2" fill="#e3e8ee"/><rect x="320" y="208" width="340" height="16" rx="2" fill="#008300"/><text x="666" y="221" font-size="11" fill="#5b6b7b">100%</text><text x="312" y="245" text-anchor="end" font-size="11" fill="#1c2733">llm-usage-ledger 1.0.0 · merge-check (1)</text><rect x="320" y="231" width="340" height="16" rx="2" fill="#e3e8ee"/><rect x="320" y="231" width="340" height="16" rx="2" fill="#008300"/><text x="666" y="244" font-size="11" fill="#5b6b7b">100%</text><text x="312" y="268" text-anchor="end" font-size="11" fill="#1c2733">lmstudio-panel 0.1.0 · claude-fable-5 (1)</text><rect x="320" y="254" width="340" height="16" rx="2" fill="#e3e8ee"/><rect x="320" y="254" width="340" height="16" rx="2" fill="#008300"/><text x="666" y="267" font-size="11" fill="#5b6b7b">100%</text><text x="312" y="291" text-anchor="end" font-size="11" fill="#1c2733">lmstudio-panel 0.2.0 · claude-fable-5 (1)</text><rect x="320" y="277" width="340" height="16" rx="2" fill="#e3e8ee"/><rect x="320" y="277" width="340" height="16" rx="2" fill="#008300"/><text x="666" y="290" font-size="11" fill="#5b6b7b">100%</text><text x="312" y="314" text-anchor="end" font-size="11" fill="#1c2733">lmstudio-panel 0.3.0 · claude-fable-5 (1)</text><rect x="320" y="300" width="340" height="16" rx="2" fill="#e3e8ee"/><rect x="320" y="300" width="340" height="16" rx="2" fill="#008300"/><text x="666" y="313" font-size="11" fill="#5b6b7b">100%</text><text x="312" y="337" text-anchor="end" font-size="11" fill="#1c2733">lmstudio-panel 0.4.0 · claude-fable-5 (2)</text><rect x="320" y="323" width="340" height="16" rx="2" fill="#e3e8ee"/><rect x="320" y="323" width="340" height="16" rx="2" fill="#008300"/><text x="666" y="336" font-size="11" fill="#5b6b7b">100%</text><text x="312" y="360" text-anchor="end" font-size="11" fill="#1c2733">lmstudio-panel 0.5.0 · claude-fable-5 (1)</text><rect x="320" y="346" width="340" height="16" rx="2" fill="#e3e8ee"/><rect x="320" y="346" width="340" height="16" rx="2" fill="#008300"/><text x="666" y="359" font-size="11" fill="#5b6b7b">100%</text><text x="312" y="383" text-anchor="end" font-size="11" fill="#1c2733">lmstudio-panel 0.6.0 · claude-fable-5 (1)</text><rect x="320" y="369" width="340" height="16" rx="2" fill="#e3e8ee"/><rect x="320" y="369" width="340" height="16" rx="2" fill="#008300"/><text x="666" y="382" font-size="11" fill="#5b6b7b">100%</text><text x="312" y="406" text-anchor="end" font-size="11" fill="#1c2733">lmstudio-panel 0.7.0 · claude-fable-5 (2)</text><rect x="320" y="392" width="340" height="16" rx="2" fill="#e3e8ee"/><rect x="320" y="392" width="340" height="16" rx="2" fill="#008300"/><text x="666" y="405" font-size="11" fill="#5b6b7b">100%</text><text x="312" y="429" text-anchor="end" font-size="11" fill="#1c2733">lmstudio-panel 0.8.0 · claude-fable-5 (2)</text><rect x="320" y="415" width="340" height="16" rx="2" fill="#e3e8ee"/><rect x="320" y="415" width="340" height="16" rx="2" fill="#008300"/><text x="666" y="428" font-size="11" fill="#5b6b7b">100%</text><text x="312" y="452" text-anchor="end" font-size="11" fill="#1c2733">lmstudio-panel 0.8.0 · claude-opus-5 (1)</text><rect x="320" y="438" width="340" height="16" rx="2" fill="#e3e8ee"/><rect x="320" y="438" width="340" height="16" rx="2" fill="#008300"/><text x="666" y="451" font-size="11" fill="#5b6b7b">100%</text><text x="312" y="475" text-anchor="end" font-size="11" fill="#1c2733">lmstudio-panel 0.9.0 · merge-check (1)</text><rect x="320" y="461" width="340" height="16" rx="2" fill="#e3e8ee"/><rect x="320" y="461" width="340" height="16" rx="2" fill="#008300"/><text x="666" y="474" font-size="11" fill="#5b6b7b">100%</text><text x="312" y="498" text-anchor="end" font-size="11" fill="#1c2733">md-convert 2026-07-25.1 · claude-fable-5 (2)</text><rect x="320" y="484" width="340" height="16" rx="2" fill="#e3e8ee"/><rect x="320" y="484" width="340" height="16" rx="2" fill="#008300"/><text x="666" y="497" font-size="11" fill="#5b6b7b">100%</text><text x="312" y="521" text-anchor="end" font-size="11" fill="#1c2733">md-convert 2026-07-25.1 · merge-check (1)</text><rect x="320" y="507" width="340" height="16" rx="2" fill="#e3e8ee"/><rect x="320" y="507" width="340" height="16" rx="2" fill="#008300"/><text x="666" y="520" font-size="11" fill="#5b6b7b">100%</text><text x="312" y="544" text-anchor="end" font-size="11" fill="#1c2733">meeting-canvas 2026-07-26.1 · claude-fable-5 (1)</text><rect x="320" y="530" width="340" height="16" rx="2" fill="#e3e8ee"/><rect x="320" y="530" width="340" height="16" rx="2" fill="#008300"/><text x="666" y="543" font-size="11" fill="#5b6b7b">100%</text><text x="312" y="567" text-anchor="end" font-size="11" fill="#1c2733">meeting-canvas 2026-07-26.1 · merge-check (1)</text><rect x="320" y="553" width="340" height="16" rx="2" fill="#e3e8ee"/><rect x="320" y="553" width="340" height="16" rx="2" fill="#008300"/><text x="666" y="566" font-size="11" fill="#5b6b7b">100%</text><text x="312" y="590" text-anchor="end" font-size="11" fill="#1c2733">sage-agent-tempo 2026-07-26.1 · claude-fable-5 (3)</text><rect x="320" y="576" width="340" height="16" rx="2" fill="#e3e8ee"/><rect x="320" y="576" width="340" height="16" rx="2" fill="#008300"/><text x="666" y="589" font-size="11" fill="#5b6b7b">100%</text><text x="312" y="613" text-anchor="end" font-size="11" fill="#1c2733">sage-agent-tempo 2026-07-26.1 · merge-check (1)</text><rect x="320" y="599" width="340" height="16" rx="2" fill="#e3e8ee"/><rect x="320" y="599" width="340" height="16" rx="2" fill="#008300"/><text x="666" y="612" font-size="11" fill="#5b6b7b">100%</text><text x="312" y="636" text-anchor="end" font-size="11" fill="#1c2733">secret-guard 0.1.0 · claude-opus-5 (5)</text><rect x="320" y="622" width="340" height="16" rx="2" fill="#e3e8ee"/><rect x="320" y="622" width="338" height="16" rx="2" fill="#e34948"/><text x="666" y="635" font-size="11" fill="#5b6b7b">100%</text></svg>